:SAMPLES-PER-SECOND 30
:FULLY-SPECIFIED
:DEGREES
557
root  -38.8438 43.2124 -8.16855 -153.786 81.4368 -162.594
RightUpLeg  -2.80535 -12.4863 -6.43209
RightLeg  5.97575 9.83093 0.394308
RightFoot  37.0506 -1.76571 5.75194
RightToes  -37.7949 -0.201112 -0.30233
Spine  -8.48719 -2.50881 -3.33327
Spine1  -15.6436 -5.74955 -3.72434
HEad  -65.8295 -15.5358 4.57512
LeftShoulder1  -1.94126e-019 -3.10601e-018 -2.51263e-017
LeftArm  -136.101 -33.9349 60.9384
LeftForeArm  30.1587 -53.3373 -12.4446
LeftHand  -0.575956 0.824765 14.6519
RightShoulder  -4.96962e-017 0 -2.36833e-017
RightArm  -137.595 27.6152 -54.4739
RightForeArm  47.3876 21.1474 2.11537
RightHand  0.574405 -8.722 -20.3738
LeftUpLeg  -0.829662 15.8975 15.1692
LeftLeg  30.3325 4.16375 2.08229
LeftFoot  38.1184 -1.0797 3.28602
LeftToes  -36.3422 1.70063e-006 7.6642e-008
558
root  -38.7656 41.7455 -8.4684 -153.675 81.9023 -161.739
RightUpLeg  -2.97794 -12.3363 -6.96808
RightLeg  5.73485 10.0893 0.362312
RightFoot  35.9346 -1.72379 5.79616
RightToes  -37.6531 -0.200012 -0.301485
Spine  -8.17755 -2.27658 -3.38375
Spine1  -15.1379 -5.12544 -3.86146
HEad  -65.3958 -15.3414 5.02344
LeftShoulder1  -1.94126e-019 -3.10601e-018 -2.51263e-017
LeftArm  -135.841 -32.2832 58.1442
LeftForeArm  30.0498 -54.3092 -12.9569
LeftHand  -0.595757 0.840014 15.2035
RightShoulder  -4.96962e-017 0 -2.36833e-017
RightArm  -133.731 26.7403 -51.6382
RightForeArm  45.6226 26.2086 3.16968
RightHand  0.461418 -8.16592 -19.7907
LeftUpLeg  -2.17869 14.445 15.9496
LeftLeg  29.1581 4.0741 1.9344
LeftFoot  36.7508 -0.97853 3.10674
LeftToes  -35.9584 1.70063e-006 7.6642e-008
559
root  -38.8247 39.8347 -8.8211 -154.755 81.6526 -162.439
RightUpLeg  -3.93493 -13.5441 -7.41148
RightLeg  5.49999 12.7908 0.406216
RightFoot  36.0046 -2.28488 7.49139
RightToes  -37.5858 -0.199491 -0.301082
Spine  -7.73424 -2.02131 -3.40754
Spine1  -14.4039 -4.44926 -3.9646
HEad  -65.5179 -15.713 4.67104
LeftShoulder1  -1.94126e-019 -3.10601e-018 -2.51263e-017
LeftArm  -135.561 -31.6144 54.478
LeftForeArm  27.8784 -56.2415 -14.26
LeftHand  -0.533659 1.49254 15.8377
RightShoulder  -4.96962e-017 0 -2.36833e-017
RightArm  -131.945 26.1324 -49.9158
RightForeArm  45.3426 31.1845 4.22132
RightHand  0.42986 -8.10808 -18.9401
LeftUpLeg  -4.56259 11.5846 16.2664
LeftLeg  27.1921 3.37923 1.46481
LeftFoot  32.5186 -0.640286 2.35667
LeftToes  -34.9061 1.70063e-006 7.6642e-008
560
root  -39.009 37.5473 -9.17978 -153.448 81.3401 -160.801
RightUpLeg  -5.23222 -11.6922 -7.33915
RightLeg  5.98572 11.4522 0.460706
RightFoot  36.5317 -2.09549 6.8183
RightToes  -52.3393 -0.323772 -0.373715
Spine  -6.99741 -1.53179 -3.13201
Spine1  -13.1523 -3.34459 -3.9519
HEad  -66.8151 -16.0498 4.62777
LeftShoulder1  -1.94126e-019 -3.10601e-018 -2.51263e-017
LeftArm  -134.636 -31.3999 50.1803
LeftForeArm  27.621 -58.6851 -15.9065
LeftHand  -0.48215 1.90274 15.946
RightShoulder  -4.96962e-017 0 -2.36833e-017
RightArm  -130.844 25.5007 -48.8561
RightForeArm  45.2833 36.0289 5.33926
RightHand  0.243264 -6.97916 -18.7371
LeftUpLeg  -6.98109 8.44724 16.8444
LeftLeg  23.5887 1.23435 0.443479
LeftFoot  28.8316 -0.20591 0.962551
LeftToes  -35.3826 1.70063e-006 7.6642e-008
561
root  -39.3456 34.8612 -9.69963 -161.689 81.2621 -168.737
RightUpLeg  -9.15026 -12.5505 -9.35603
RightLeg  18.9932 7.05926 1.92621
RightFoot  9.27477 -0.0544251 1.16911
RightToes  -45.9163 -0.267385 -0.346046
Spine  -6.24475 -1.0528 -2.97861
Spine1  -11.821 -2.44847 -4.86975
HEad  -69.8745 -15.1768 4.89443
LeftShoulder1  -1.94126e-019 -3.10601e-018 -2.51263e-017
LeftArm  -131.989 -31.6019 45.467
LeftForeArm  29.3335 -59.3776 -16.2541
LeftHand  -0.501346 1.85711 16.3761
RightShoulder  -4.96962e-017 0 -2.36833e-017
RightArm  -131.104 26.9563 -48.5839
RightForeArm  45.9852 42.1419 6.94959
RightHand  0.33563 -7.58263 -18.5167
LeftUpLeg  -11.9134 6.05754 15.3047
LeftLeg  29.7151 5.19482 2.5278
LeftFoot  19.2337 -0.348797 2.21984
LeftToes  -64.6382 1.70063e-006 7.6642e-008
562
root  -39.5841 32.4833 -10.0902 -149.055 80.8678 -152.175
RightUpLeg  -10.8917 -8.23343 -7.93607
RightLeg  30.871 1.43034 0.723655
RightFoot  -6.85536 -0.0381326 -0.10311
RightToes  -42.8764 -0.241859 -0.330787
Spine  -4.56823 -0.183291 -1.8872
Spine1  -8.79669 -0.55394 -2.85301
HEad  -71.4194 -14.1088 4.29386
LeftShoulder1  -1.94126e-019 -3.10601e-018 -2.51263e-017
LeftArm  -123.241 -33.1809 37.6059
LeftForeArm  31.1872 -64.1721 -20.3646
LeftHand  -0.535447 1.82163 17.3259
RightShoulder  -4.96962e-017 0 -2.36833e-017
RightArm  -126.399 30.1108 -43.952
RightForeArm  46.2647 53.5572 11.1885
RightHand  0.427616 -8.22172 -18.1568
LeftUpLeg  -14.1259 5.81553 18.0131
LeftLeg  45.5136 5.73136 5.10023
LeftFoot  -1.89954 -0.00192412 0.0454385
LeftToes  -51.8667 1.70063e-006 7.6642e-008
563
root  -39.9264 31.0317 -10.9501 -153.725 80.2283 -156.621
RightUpLeg  -18.6391 -8.46251 -10.3531
RightLeg  46.8224 0.712572 0.628178
RightFoot  -10.4519 -0.055912 -0.0753121
RightToes  -46.8545 -0.275423 -0.350479
Spine  -3.68118 0.188918 -1.67455
Spine1  -7.14174 0.187819 -2.47875
HEad  -74.5443 -11.5925 3.7618
LeftShoulder1  -1.94126e-019 -3.10601e-018 -2.51263e-017
LeftArm  -112.78 -31.7627 27.2251
LeftForeArm  39.2106 -69.64 -26.8504
LeftHand  -0.65316 1.11914 17.7219
RightShoulder  -4.96962e-017 0 -2.36833e-017
RightArm  -121.467 32.4395 -37.9779
RightForeArm  54.8887 68.839 22.6813
RightHand  0.393966 -8.06888 -17.7634
LeftUpLeg  -16.7245 6.29384 16.0217
LeftLeg  51.6655 7.02272 7.71884
LeftFoot  -14.0548 -0.301752 -2.28599
LeftToes  -41.1378 1.70063e-006 7.6642e-008
564
root  -39.878 30.4836 -11.9518 -163.901 78.9341 -165.226
RightUpLeg  -18.8507 -12.2783 -13.6558
RightLeg  51.8512 0.133686 0.0945409
RightFoot  -9.18352 -0.0360698 0.0924249
RightToes  -51.6615 -0.317679 -0.371096
Spine  -3.01256 0.511273 -1.57719
Spine1  -5.98061 0.98217 -2.37562
HEad  -74.424 -8.47028 1.90734
LeftShoulder1  -1.94126e-019 -3.10601e-018 -2.51263e-017
LeftArm  -94.5572 -28.509 12.8855
LeftForeArm  50.1143 -73.5535 -33.9461
LeftHand  -0.819595 0.362659 18.9272
RightShoulder  -4.96962e-017 0 -2.36833e-017
RightArm  -110.067 36.0239 -27.8986
RightForeArm  112.923 81.276 83.4716
RightHand  0.429344 -8.13004 -18.7808
LeftUpLeg  -16.0098 5.46472 13.9994
LeftLeg  54.0974 5.29351 6.35649
LeftFoot  -18.6814 -0.424081 -2.41626
LeftToes  -41.1736 1.70063e-006 7.6642e-008
